<?xml version="1.0"?>
<svg width="2548" height="1482" xmlns="http://www.w3.org/2000/svg">
 <defs>
  <style type="text/css">
   <![CDATA[
    .fil5 {fill:none}
    .fil1 {fill:#00ADEF}
    .fil3 {fill:#034079}
    .fil4 {fill:#19B8DF}
    .fil2 {fill:#F05E21}
    .fil0 {fill:#F6700E}
   ]]>
  </style>
 </defs>
 <g>
  <title>background</title>
  <rect fill="none" id="canvas_background" height="402" width="582" y="-1" x="-1"/>
 </g>
 <g>
  <title>Layer 1</title>
  <g id="Layer_x0020_1">
   <metadata id="CorelCorpID_0Corel-Layer"/>
   <path id="svg_1" d="m1864,1082l0,275l-712,79c242,-108 476,-286 712,-354z" class="fil0"/>
   <path id="svg_2" d="m970,919c-218,27 -376,112 -599,-29c-58,-37 -156,-118 -165,-216c-13,-140 90,-148 218,-150c-244,-89 -459,24 -372,243c108,270 513,286 746,219c67,-20 121,-51 172,-67z" class="fil1"/>
   <path id="svg_3" d="m1364,106c16,-36 45,-59 59,-93l-479,76c-36,6 -69,4 -90,25l-578,553l684,0c27,-8 339,-486 404,-561z" class="fil2"/>
   <path id="svg_4" d="m1364,106c17,24 42,45 62,68c63,76 420,449 447,493l181,0c-52,-64 -329,-342 -342,-362c-10,-8 -135,-136 -141,-148c-43,-22 -104,-126 -148,-144c-14,34 -43,57 -59,93z" class="fil3"/>
   <polygon id="svg_5" points="1269,667 1484,667 1484,452 1268,452 " class="fil3"/>
   <path id="svg_6" d="m1571,157c6,12 131,140 141,148l2,-290c-28,-22 -119,-18 -143,2l0,140z" class="fil0"/>
   <path id="svg_7" d="m1365,231c-95,23 -63,170 38,143c85,-23 58,-167 -38,-143z" class="fil3"/>
   <path id="svg_8" d="m375,1291c20,33 57,56 94,81c33,22 77,46 116,63c663,292 1276,-916 1963,-137c-18,-117 -191,-381 -353,-452c-336,-148 -642,96 -885,247c-336,209 -489,320 -935,198z" class="fil4"/>
   <path id="svg_9" d="m0,837c60,152 304,397 507,448c622,157 1036,-703 1641,-512c148,47 191,105 283,174c-12,-28 -72,-102 -93,-124c-89,-92 -267,-204 -420,-228c-752,-124 -1015,959 -1918,242z" class="fil3"/>
   <line id="svg_10" y2="892" x2="427" y1="670" x1="427" class="fil5"/>
   <path id="svg_11" d="m960,667c27,-8 339,-486 404,-561c16,-36 45,-59 59,-93l-479,76c-36,6 -69,4 -90,25l-578,553l684,0z" class="fil0"/>
   <path id="svg_12" d="m371,890c-58,-37 -156,-118 -165,-216c-13,-140 90,-148 218,-150c-244,-89 -459,24 -372,243c108,270 513,286 746,219c67,-20 121,-51 172,-67c-218,27 -376,112 -599,-29z" class="fil4"/>
  </g>
 </g>
</svg>